<svg viewBox="0 0 96 96" xmlns="http://www.w3.org/2000/svg" xmlns:xlink="http://www.w3.org/1999/xlink" id="Icons_Badge5_M" overflow="hidden"><g id="Icons"><path d="M48.021 12C67.8917 12 84 28.1083 84 47.979 84 67.8497 67.8917 83.958 48.021 83.958 28.1503 83.958 12.042 67.8497 12.042 47.979 12.0646 28.1177 28.1597 12.0226 48.021 12M48.021 10C27.0458 10 10.042 27.0038 10.042 47.979 10.042 68.9542 27.0458 85.958 48.021 85.958 68.9962 85.958 86 68.9542 86 47.979 86.0099 27.0137 69.0223 10.0099 48.057 10 48.045 9.99999 48.033 9.99999 48.021 10Z" fill="#00B050"/><path d="M45.733 64.213C43.5928 64.3023 41.4605 63.9 39.5 63.037L39.5 60.575C41.4325 61.6948 43.6198 62.3004 45.853 62.334 47.0738 62.3497 48.288 62.1525 49.441 61.751 50.4655 61.3901 51.4047 60.8219 52.2 60.082 52.968 59.3502 53.5684 58.4609 53.96 57.475 54.3761 56.4105 54.5836 55.2759 54.571 54.133 54.7081 51.8996 53.8256 49.7244 52.171 48.218 50.597 46.872 48.265 46.189 45.24 46.189 44.125 46.189 42.532 46.272 40.505 46.438L41.491 30.738 55.461 30.738 55.461 32.758 43.39 32.758 42.639 44.384 43.039 44.354C44.382 44.262 45.462 44.215 46.249 44.215 47.8123 44.1889 49.3696 44.4165 50.86 44.889 52.0921 45.2859 53.2272 45.9369 54.192 46.8 55.0955 47.6332 55.7946 48.6636 56.235 49.811 56.7205 51.111 56.9579 52.4905 56.935 53.878 56.9529 55.3229 56.6985 56.7583 56.185 58.109 55.711 59.3383 54.9718 60.448 54.02 61.359 53.0099 62.2965 51.8146 63.0119 50.511 63.459 48.9733 63.9821 47.3571 64.2372 45.733 64.213Z" fill="#00B050"/></g></svg>